<svg preserveAspectRatio="none" width="100%" height="100%" overflow="visible" style="display: block;" viewBox="0 0 24 24" fill="none" xmlns="http://www.w3.org/2000/svg">
<g id="gnb icon">
<path id="Vector" d="M13.55 22C13.1333 22 12.7792 21.8542 12.4875 21.5625C12.1958 21.2708 12.05 20.9167 12.05 20.5V13.5C12.05 13.0833 12.1958 12.7292 12.4875 12.4375C12.7792 12.1458 13.1333 12 13.55 12H20.55C20.9667 12 21.3208 12.1458 21.6125 12.4375C21.9042 12.7292 22.05 13.0833 22.05 13.5V20.5C22.05 20.9167 21.9042 21.2708 21.6125 21.5625C21.3208 21.8542 20.9667 22 20.55 22H13.55ZM8.3 21L7.9 17.8C7.68333 17.7167 7.47917 17.6167 7.2875 17.5C7.09583 17.3833 6.90833 17.2583 6.725 17.125L3.75 18.375L1 13.625L3.575 11.675C3.55833 11.5583 3.55 11.4458 3.55 11.3375V10.6625C3.55 10.5542 3.55833 10.4417 3.575 10.325L1 8.375L3.75 3.625L6.725 4.875C6.90833 4.74167 7.1 4.61667 7.3 4.5C7.5 4.38333 7.7 4.28333 7.9 4.2L8.3 1H13.8L14.2 4.2C14.4167 4.28333 14.6208 4.38333 14.8125 4.5C15.0042 4.61667 15.1917 4.74167 15.375 4.875L18.35 3.625L21.1 8.375L18.975 10H14.45C14.2167 9.28333 13.8 8.6875 13.2 8.2125C12.6 7.7375 11.9 7.5 11.1 7.5C10.1333 7.5 9.30833 7.84167 8.625 8.525C7.94167 9.20833 7.6 10.0333 7.6 11C7.6 11.8 7.825 12.5 8.275 13.1C8.725 13.7 9.31667 14.1167 10.05 14.35V21H8.3ZM14.05 20H20.05V19.175C19.6333 18.7917 19.1667 18.5 18.65 18.3C18.1333 18.1 17.6 18 17.05 18C16.5 18 15.9667 18.1 15.45 18.3C14.9333 18.5 14.4667 18.7917 14.05 19.175V20ZM18.1125 16.5625C18.4042 16.2708 18.55 15.9167 18.55 15.5C18.55 15.0833 18.4042 14.7292 18.1125 14.4375C17.8208 14.1458 17.4667 14 17.05 14C16.6333 14 16.2792 14.1458 15.9875 14.4375C15.6958 14.7292 15.55 15.0833 15.55 15.5C15.55 15.9167 15.6958 16.2708 15.9875 16.5625C16.2792 16.8542 16.6333 17 17.05 17C17.4667 17 17.8208 16.8542 18.1125 16.5625Z" fill="var(--fill-0, #0F172A)"/>
</g>
</svg>
