<svg width="16" height="16" viewBox="0 0 16 16" fill="none" xmlns="http://www.w3.org/2000/svg">
<path d="M10.0674 8.84082L9.82715 9.94336H9.7666L9.50684 8.84082H10.0674Z" fill="#334155"/>
<path d="M6.33301 8.84082L6.07324 9.93359H6.0127L5.78223 8.84082H6.33301Z" fill="#334155"/>
<path d="M7.94531 6.90723L8.18555 7.91309H7.66504L7.89453 6.90723H7.94531Z" fill="#334155"/>
<path fill-rule="evenodd" clip-rule="evenodd" d="M8 0C12.4183 0 16 3.58172 16 8C16 12.4183 12.4183 16 8 16C3.58172 16 0 12.4183 0 8C0 3.58172 3.58172 0 8 0ZM11.4453 4.87695C11.1322 4.87717 10.8615 5.09691 10.7969 5.40332L10.2676 7.91309H9.28613L8.71484 5.50488C8.6273 5.13677 8.29832 4.87695 7.91992 4.87695C7.54152 4.87695 7.21254 5.13677 7.125 5.50488L6.55371 7.91309H5.58203L5.04395 5.40137C4.97833 5.0956 4.70821 4.87713 4.39551 4.87695C3.9653 4.87695 3.64801 5.2803 3.75 5.69824L4.29102 7.91309H3.88379C3.62758 7.91321 3.41992 8.12072 3.41992 8.37695C3.41992 8.63319 3.62758 8.8407 3.88379 8.84082H4.52148L5.08887 11.1689C5.19022 11.5843 5.56272 11.8769 5.99023 11.877C6.41982 11.877 6.79313 11.5819 6.89258 11.1641L7.44434 8.84082H8.40527L8.94922 11.1621C9.04736 11.5808 9.42052 11.877 9.85059 11.877C10.2775 11.877 10.6488 11.5847 10.75 11.1699L11.3184 8.84082H11.9561C12.2123 8.8407 12.4199 8.63319 12.4199 8.37695C12.4199 8.12072 12.2123 7.91321 11.9561 7.91309H11.5488L12.0898 5.69727C12.1917 5.27985 11.875 4.87695 11.4453 4.87695Z" fill="#334155"/>
</svg>
